<svg width="681" height="651" viewBox="0 0 681 651" fill="none" xmlns="http://www.w3.org/2000/svg">
<path d="M681 497.885H0V498.21H681V497.885Z" fill="#EBEBEB"/>
<path d="M612.764 518.834H567.654V519.159H612.764V518.834Z" fill="#EBEBEB"/>
<path d="M451.122 522.375H439.286V522.701H451.122V522.375Z" fill="#EBEBEB"/>
<path d="M566.292 506.751H540.156V507.077H566.292V506.751Z" fill="#EBEBEB"/>
<path d="M130.275 508.939H71.4506V509.264H130.275V508.939Z" fill="#EBEBEB"/>
<path d="M151.032 508.939H142.411V509.264H151.032V508.939Z" fill="#EBEBEB"/>
<path d="M306.654 514.433H179.062V514.759H306.654V514.433Z" fill="#EBEBEB"/>
<path d="M322.794 439.816H59.8054C57.7452 439.812 55.7705 439.027 54.315 437.633C52.8595 436.24 52.042 434.351 52.042 432.381V78.9793C52.0599 77.0211 52.8853 75.1488 54.3389 73.769C55.7925 72.3892 57.7569 71.6133 59.8054 71.61H322.794C324.857 71.61 326.835 72.3933 328.293 73.7875C329.752 75.1817 330.571 77.0727 330.571 79.0444V432.381C330.571 434.353 329.752 436.244 328.293 437.638C326.835 439.032 324.857 439.816 322.794 439.816ZM59.8054 71.8704C57.8355 71.8738 55.9475 72.6243 54.5558 73.9571C53.1641 75.2899 52.3825 77.0962 52.3825 78.9793V432.381C52.3825 434.264 53.1641 436.07 54.5558 437.403C55.9475 438.736 57.8355 439.487 59.8054 439.49H322.794C324.765 439.487 326.655 438.737 328.048 437.404C329.442 436.072 330.227 434.265 330.23 432.381V78.9793C330.227 77.095 329.442 75.2888 328.048 73.9563C326.655 72.6239 324.765 71.8738 322.794 71.8704H59.8054Z" fill="#EBEBEB"/>
<path d="M617.408 439.816H354.406C352.345 439.812 350.369 439.028 348.911 437.634C347.453 436.241 346.633 434.352 346.629 432.381V78.9793C346.651 77.0199 347.479 75.1476 348.935 73.7682C350.39 72.3887 352.356 71.6133 354.406 71.61H617.408C619.454 71.6168 621.415 72.3941 622.866 73.7736C624.317 75.153 625.14 77.0234 625.158 78.9793V432.381C625.158 434.348 624.342 436.235 622.89 437.629C621.437 439.022 619.466 439.809 617.408 439.816ZM354.406 71.8704C352.435 71.8738 350.545 72.6239 349.152 73.9563C347.758 75.2888 346.973 77.095 346.97 78.9793V432.381C346.973 434.265 347.758 436.072 349.152 437.404C350.545 438.737 352.435 439.487 354.406 439.49H617.408C619.379 439.487 621.269 438.737 622.663 437.404C624.057 436.072 624.841 434.265 624.845 432.381V78.9793C624.841 77.095 624.057 75.2888 622.663 73.9563C621.269 72.6239 619.379 71.8738 617.408 71.8704H354.406Z" fill="#EBEBEB"/>
<path d="M482.053 127.778C482.055 126.937 481.882 126.104 481.544 125.328C481.207 124.551 480.711 123.846 480.087 123.254C479.462 122.662 478.721 122.194 477.906 121.878C477.09 121.561 476.218 121.403 475.338 121.412C474.688 121.411 474.042 121.499 473.418 121.672C473.516 121.025 473.566 120.372 473.567 119.719C473.568 116.154 472.09 112.734 469.458 110.209C466.826 107.683 463.255 106.257 459.525 106.243C458.653 106.244 457.783 106.318 456.924 106.465C455.533 104.281 453.438 102.588 450.953 101.643C448.468 100.697 445.729 100.55 443.149 101.223C440.569 101.896 438.288 103.353 436.65 105.375C435.012 107.396 434.106 109.871 434.069 112.428H433.865C430.919 112.525 428.127 113.713 426.079 115.74C424.031 117.767 422.886 120.475 422.886 123.293C422.886 126.111 424.031 128.819 426.079 130.846C428.127 132.873 430.919 134.061 433.865 134.158H475.57C477.306 134.111 478.955 133.418 480.166 132.226C481.377 131.035 482.053 129.439 482.053 127.778Z" fill="#F0F0F0"/>
<path d="M457.564 137.296V124.888H446.981V137.296H438.36L452.279 148.545L466.199 137.296H457.564Z" fill="#E0E0E0"/>
<path d="M273.326 146.553C273.326 142.968 271.837 139.529 269.186 136.992C266.535 134.456 262.939 133.029 259.189 133.025C257.805 133.027 256.429 133.22 255.103 133.598C255.322 132.224 255.432 130.835 255.429 129.445C255.429 121.848 252.273 114.562 246.653 109.19C241.034 103.819 233.412 100.801 225.465 100.801C223.615 100.8 221.768 100.966 219.949 101.296C216.998 96.6559 212.548 93.0599 207.27 91.0503C201.993 89.0407 196.175 88.7266 190.695 90.1554C185.215 91.5842 180.369 94.6783 176.89 98.9708C173.411 103.263 171.486 108.521 171.408 113.951H170.972C167.755 113.878 164.556 114.421 161.561 115.547C158.567 116.673 155.839 118.36 153.537 120.509C151.235 122.658 149.405 125.226 148.156 128.06C146.907 130.895 146.264 133.94 146.264 137.016C146.264 140.092 146.907 143.137 148.156 145.971C149.405 148.806 151.235 151.374 153.537 153.523C155.839 155.672 158.567 157.359 161.561 158.485C164.556 159.611 167.755 160.154 170.972 160.081H259.57C263.255 159.986 266.756 158.518 269.326 155.991C271.896 153.464 273.331 150.077 273.326 146.553Z" fill="#F0F0F0"/>
<path d="M198.852 147.595V173.96H221.339V147.595H239.658L210.088 123.716L180.533 147.595H198.852Z" fill="#E0E0E0"/>
<path d="M284.617 212.395V176.942H398.181V212.044" stroke="#E6E6E6" stroke-miterlimit="10"/>
<path d="M343.074 143.532V212.304" stroke="#E6E6E6" stroke-miterlimit="10"/>
<path d="M362.401 130.031H323.775C322.879 130.031 322.154 130.724 322.154 131.58V153.545C322.154 154.401 322.879 155.094 323.775 155.094H362.401C363.296 155.094 364.022 154.401 364.022 153.545V131.58C364.022 130.724 363.296 130.031 362.401 130.031Z" fill="#F0F0F0"/>
<path d="M361.992 132.973H324.17C323.854 132.973 323.598 133.218 323.598 133.52V153.545C323.598 153.847 323.854 154.092 324.17 154.092H361.992C362.308 154.092 362.564 153.847 362.564 153.545V133.52C362.564 133.218 362.308 132.973 361.992 132.973Z" fill="#E0E0E0"/>
<path d="M303.93 209.179H265.304C264.409 209.179 263.683 209.873 263.683 210.729V232.693C263.683 233.549 264.409 234.243 265.304 234.243H303.93C304.825 234.243 305.551 233.549 305.551 232.693V210.729C305.551 209.873 304.825 209.179 303.93 209.179Z" fill="#F0F0F0"/>
<path d="M303.522 212.122H265.699C265.383 212.122 265.127 212.367 265.127 212.669V232.693C265.127 232.995 265.383 233.24 265.699 233.24H303.522C303.838 233.24 304.094 232.995 304.094 232.693V212.669C304.094 212.367 303.838 212.122 303.522 212.122Z" fill="#E0E0E0"/>
<path d="M362.401 209.179H323.775C322.879 209.179 322.154 209.873 322.154 210.729V232.693C322.154 233.549 322.879 234.243 323.775 234.243H362.401C363.296 234.243 364.022 233.549 364.022 232.693V210.729C364.022 209.873 363.296 209.179 362.401 209.179Z" fill="#F0F0F0"/>
<path d="M361.992 212.122H324.17C323.854 212.122 323.598 212.367 323.598 212.669V232.693C323.598 232.995 323.854 233.24 324.17 233.24H361.992C362.308 233.24 362.564 232.995 362.564 232.693V212.669C362.564 212.367 362.308 212.122 361.992 212.122Z" fill="#E0E0E0"/>
<path d="M417.589 209.179H378.963C378.068 209.179 377.342 209.873 377.342 210.729V232.693C377.342 233.549 378.068 234.243 378.963 234.243H417.589C418.484 234.243 419.21 233.549 419.21 232.693V210.729C419.21 209.873 418.484 209.179 417.589 209.179Z" fill="#F0F0F0"/>
<path d="M417.181 212.122H379.358C379.042 212.122 378.786 212.367 378.786 212.669V232.693C378.786 232.995 379.042 233.24 379.358 233.24H417.181C417.496 233.24 417.753 232.995 417.753 232.693V212.669C417.753 212.367 417.496 212.122 417.181 212.122Z" fill="#E0E0E0"/>
<path d="M342.293 166.201L331.834 176.2C331.403 176.611 331.403 177.279 331.834 177.691L342.293 187.689C342.723 188.101 343.422 188.101 343.853 187.689L354.312 177.691C354.743 177.279 354.743 176.611 354.312 176.2L343.853 166.201C343.422 165.789 342.723 165.789 342.293 166.201Z" fill="#E0E0E0"/>
<path opacity="0.8" d="M121.341 159.69H94.0869C93.4325 159.69 92.902 160.197 92.902 160.823V175.523C92.902 176.148 93.4325 176.655 94.0869 176.655H121.341C121.995 176.655 122.525 176.148 122.525 175.523V160.823C122.525 160.197 121.995 159.69 121.341 159.69Z" fill="#E0E0E0"/>
<path d="M100.543 196.185H78.9552C78.3008 196.185 77.7703 196.692 77.7703 197.318V208.007C77.7703 208.633 78.3008 209.14 78.9552 209.14H100.543C101.197 209.14 101.728 208.633 101.728 208.007V197.318C101.728 196.692 101.197 196.185 100.543 196.185Z" fill="#E0E0E0"/>
<path d="M136.895 196.185H115.307C114.652 196.185 114.122 196.692 114.122 197.318V208.007C114.122 208.633 114.652 209.14 115.307 209.14H136.895C137.549 209.14 138.08 208.633 138.08 208.007V197.318C138.08 196.692 137.549 196.185 136.895 196.185Z" fill="#E0E0E0"/>
<path d="M114.544 223.605H104.343C103.688 223.605 103.158 224.113 103.158 224.738V233.54C103.158 234.165 103.688 234.672 104.343 234.672H114.544C115.199 234.672 115.729 234.165 115.729 233.54V224.738C115.729 224.113 115.199 223.605 114.544 223.605Z" fill="#E0E0E0"/>
<path d="M130.507 223.605H120.305C119.651 223.605 119.12 224.113 119.12 224.738V233.54C119.12 234.165 119.651 234.672 120.305 234.672H130.507C131.161 234.672 131.692 234.165 131.692 233.54V224.738C131.692 224.113 131.161 223.605 130.507 223.605Z" fill="#E0E0E0"/>
<path d="M146.483 223.605H136.282C135.627 223.605 135.097 224.113 135.097 224.738V233.54C135.097 234.165 135.627 234.672 136.282 234.672H146.483C147.138 234.672 147.668 234.165 147.668 233.54V224.738C147.668 224.113 147.138 223.605 146.483 223.605Z" fill="#E0E0E0"/>
<path d="M77.5931 223.605H67.3917C66.7373 223.605 66.2068 224.113 66.2068 224.738V233.54C66.2068 234.165 66.7373 234.672 67.3917 234.672H77.5931C78.2475 234.672 78.778 234.165 78.778 233.54V224.738C78.778 224.113 78.2475 223.605 77.5931 223.605Z" fill="#E0E0E0"/>
<path d="M94.9178 223.605H84.7164C84.062 223.605 83.5315 224.113 83.5315 224.738V233.54C83.5315 234.165 84.062 234.672 84.7164 234.672H94.9178C95.5722 234.672 96.1027 234.165 96.1027 233.54V224.738C96.1027 224.113 95.5722 223.605 94.9178 223.605Z" fill="#E0E0E0"/>
<path d="M124.732 196.185H126.094V187.071H108.388V176.655H107.026V187.071H89.3199V196.185H90.6819V188.373H124.732V196.185Z" fill="#E0E0E0"/>
<path d="M89.32 217.017H71.614V223.527H72.976V218.319H89.32V223.527H90.682V209.205H89.32V217.017Z" fill="#E0E0E0"/>
<path d="M126.094 218.319V209.205H124.732V218.319H108.388V223.527H109.75V219.621H124.732V223.527H126.094V219.621H141.076V223.527H142.438V218.319H126.094Z" fill="#E0E0E0"/>
<path d="M518.922 163.766V173.166L523.962 173.622C524.638 176.703 525.913 179.635 527.721 182.267L524.479 186.004L531.398 192.618L535.307 189.519C538.057 191.253 541.126 192.472 544.351 193.113L544.8 197.904H554.579L555.056 193.087C558.281 192.446 561.35 191.227 564.1 189.493L568.009 192.592L574.928 185.978L571.7 182.28C573.508 179.648 574.783 176.716 575.459 173.635L580.498 173.179V163.831L575.459 163.375C574.785 160.297 573.51 157.368 571.7 154.743L574.941 151.006L568.022 144.392L564.113 147.478C561.361 145.749 558.293 144.53 555.07 143.884L554.593 139.067H544.8L544.323 143.884C541.1 144.53 538.033 145.749 535.28 147.478L531.371 144.392L524.452 151.006L527.693 154.743C525.883 157.368 524.608 160.297 523.934 163.375L518.922 163.766ZM549.717 155.784C552.339 155.784 554.901 156.528 557.081 157.92C559.261 159.313 560.959 161.292 561.962 163.608C562.964 165.923 563.226 168.471 562.714 170.929C562.201 173.387 560.938 175.644 559.083 177.415C557.228 179.186 554.866 180.392 552.294 180.879C549.722 181.367 547.057 181.114 544.636 180.153C542.215 179.192 540.146 177.567 538.691 175.481C537.237 173.396 536.462 170.946 536.465 168.44C536.468 165.084 537.864 161.867 540.346 159.495C542.828 157.122 546.193 155.788 549.703 155.784H549.717Z" fill="#F5F5F5"/>
<path d="M525.228 232.016C527.754 231.509 530.156 230.55 532.31 229.191L535.375 231.626L540.823 226.418L538.29 223.488C539.705 221.427 540.703 219.131 541.232 216.718L545.181 216.353V209.023L541.232 208.672C540.705 206.258 539.707 203.961 538.29 201.901L540.823 198.972L535.375 193.764L532.31 196.185C530.156 194.83 527.753 193.876 525.228 193.373L524.86 189.597H517.192L516.824 193.373C514.3 193.876 511.897 194.83 509.742 196.185L506.664 193.816L501.216 199.024L503.749 201.953C502.332 204.013 501.334 206.31 500.807 208.724L496.858 209.075V216.405L500.807 216.77C501.336 219.183 502.334 221.479 503.749 223.54L501.216 226.444L506.664 231.652L509.728 229.217C511.882 230.576 514.285 231.535 516.811 232.042L517.179 235.805H524.847L525.228 232.016ZM510.641 212.721C510.638 210.755 511.245 208.833 512.386 207.198C513.526 205.563 515.148 204.287 517.047 203.533C518.945 202.78 521.035 202.581 523.052 202.963C525.069 203.345 526.922 204.29 528.377 205.679C529.831 207.067 530.822 208.837 531.224 210.765C531.627 212.692 531.422 214.69 530.635 216.506C529.849 218.322 528.517 219.875 526.808 220.967C525.099 222.059 523.089 222.642 521.033 222.642C518.279 222.642 515.638 221.597 513.69 219.737C511.741 217.877 510.645 215.353 510.641 212.721Z" fill="#F5F5F5"/>
<path d="M508.121 192.344L510.695 194.376L515.258 190.027L513.12 187.566C514.314 185.836 515.155 183.905 515.599 181.876L518.908 181.577V175.431L515.599 175.132C515.155 173.103 514.314 171.172 513.12 169.442L515.258 166.981L510.75 162.633L508.176 164.664C506.369 163.525 504.355 162.721 502.237 162.294L501.924 159.13H495.482L495.169 162.294C493.046 162.718 491.027 163.522 489.217 164.664L486.643 162.633L482.093 166.981L484.218 169.442C483.028 171.173 482.192 173.104 481.753 175.132L478.43 175.431V181.577L481.753 181.876C482.192 183.905 483.028 185.835 484.218 187.566L482.039 190.092L486.588 194.441L489.162 192.41C490.97 193.552 492.991 194.352 495.114 194.766L495.427 197.943H501.87L502.183 194.766C504.306 194.33 506.322 193.508 508.121 192.344ZM489.925 178.504C489.925 176.856 490.436 175.245 491.394 173.875C492.352 172.504 493.713 171.436 495.306 170.806C496.899 170.175 498.651 170.01 500.342 170.331C502.033 170.653 503.586 171.447 504.806 172.612C506.025 173.777 506.855 175.262 507.191 176.879C507.527 178.495 507.355 180.17 506.695 181.693C506.035 183.216 504.918 184.517 503.485 185.433C502.051 186.348 500.366 186.837 498.642 186.837C496.33 186.837 494.113 185.959 492.478 184.396C490.843 182.834 489.925 180.714 489.925 178.504Z" fill="#F5F5F5"/>
<path d="M598.449 421.887H506.991V478.745H598.449V421.887Z" fill="#F5F5F5"/>
<path d="M595.085 432.55H510.328V475.907H595.085V432.55Z" fill="#E0E0E0"/>
<path d="M579.94 439.034H517.233V440.896H579.94V439.034Z" fill="#F5F5F5"/>
<path d="M547.32 444.737H517.233V446.599H547.32V444.737Z" fill="#F5F5F5"/>
<path d="M555.124 450.453H517.233V452.315H555.124V450.453Z" fill="#F5F5F5"/>
<path d="M530.581 456.169H517.233V458.031H530.581V456.169Z" fill="#F5F5F5"/>
<path d="M525.882 461.885H517.233V463.746H525.882V461.885Z" fill="#F5F5F5"/>
<path d="M130.192 421.565L65.1162 421.847L65.2984 460.217L130.374 459.934L130.192 421.565Z" fill="#EBEBEB"/>
<path d="M90.0826 450.57C89.7941 450.571 89.5127 450.484 89.2791 450.323L77.416 442.029C77.2444 441.909 77.1045 441.752 77.0075 441.572C76.9105 441.391 76.8592 441.191 76.8576 440.987C76.8555 440.783 76.9037 440.581 76.9983 440.398C77.093 440.215 77.2314 440.055 77.4024 439.933L89.1973 431.535C89.4881 431.329 89.8524 431.243 90.21 431.294C90.5676 431.345 90.8892 431.53 91.1041 431.808C91.3191 432.086 91.4097 432.434 91.356 432.776C91.3024 433.118 91.1089 433.426 90.8181 433.631L80.5078 440.974L90.8862 448.213C91.1197 448.375 91.2935 448.603 91.3827 448.865C91.4719 449.127 91.4718 449.41 91.3824 449.672C91.2931 449.934 91.1191 450.162 90.8856 450.323C90.652 450.485 90.3709 450.571 90.0826 450.57Z" fill="#FAFAFA"/>
<path d="M105.501 450.492C105.287 450.494 105.076 450.448 104.884 450.357C104.692 450.267 104.526 450.135 104.397 449.971C104.291 449.834 104.214 449.677 104.17 449.511C104.127 449.345 104.118 449.172 104.145 449.003C104.171 448.834 104.233 448.671 104.325 448.524C104.417 448.378 104.539 448.25 104.683 448.148L114.994 440.805L104.615 433.566C104.324 433.361 104.131 433.053 104.077 432.711C104.024 432.369 104.114 432.021 104.329 431.743C104.544 431.465 104.866 431.28 105.223 431.229C105.581 431.178 105.945 431.264 106.236 431.47L118.099 439.75C118.273 439.872 118.414 440.03 118.511 440.214C118.608 440.397 118.658 440.6 118.657 440.805C118.657 441.007 118.608 441.207 118.514 441.387C118.419 441.568 118.282 441.725 118.113 441.847L106.318 450.245C106.08 450.409 105.794 450.496 105.501 450.492Z" fill="#FAFAFA"/>
<path d="M94.6863 450.557C94.5329 450.555 94.381 450.529 94.2368 450.479C93.8981 450.364 93.6207 450.125 93.4651 449.816C93.3095 449.506 93.2882 449.15 93.406 448.825L99.5214 432.108C99.5804 431.946 99.6722 431.797 99.7914 431.67C99.9106 431.542 100.055 431.438 100.216 431.364C100.377 431.289 100.552 431.246 100.731 431.236C100.91 431.227 101.089 431.251 101.258 431.307C101.427 431.363 101.583 431.451 101.716 431.565C101.85 431.679 101.959 431.817 102.036 431.971C102.114 432.125 102.159 432.293 102.17 432.463C102.18 432.634 102.155 432.805 102.096 432.967L95.9802 449.685C95.8865 449.941 95.7115 450.163 95.4795 450.319C95.2475 450.475 94.9702 450.559 94.6863 450.557Z" fill="#FAFAFA"/>
<path d="M340.5 556.683C486.346 556.683 604.578 550.084 604.578 541.944C604.578 533.805 486.346 527.206 340.5 527.206C194.654 527.206 76.4219 533.805 76.4219 541.944C76.4219 550.084 194.654 556.683 340.5 556.683Z" fill="#F5F5F5"/>
<path d="M455.426 541.944H465.436L479.056 470.022H469.046L455.426 541.944Z" fill="#263238"/>
<path opacity="0.2" d="M455.426 541.944H465.436L479.056 470.022H469.046L455.426 541.944Z" fill="white"/>
<path opacity="0.2" d="M455.426 541.944H462.712L476.332 470.022H469.046L455.426 541.944Z" fill="white"/>
<path d="M427.246 491.414H467.275C467.565 491.416 467.853 491.362 468.121 491.257C468.39 491.151 468.634 490.996 468.839 490.8C469.044 490.604 469.207 490.37 469.317 490.114C469.427 489.857 469.483 489.582 469.481 489.305C469.483 489.027 469.427 488.752 469.317 488.495C469.207 488.239 469.044 488.005 468.839 487.809C468.634 487.613 468.39 487.458 468.121 487.352C467.853 487.247 467.565 487.194 467.275 487.195H427.246C426.956 487.194 426.668 487.247 426.399 487.352C426.131 487.458 425.887 487.613 425.682 487.809C425.476 488.005 425.314 488.239 425.204 488.495C425.093 488.752 425.038 489.027 425.039 489.305C425.038 489.582 425.093 489.857 425.204 490.114C425.314 490.37 425.476 490.604 425.682 490.8C425.887 490.996 426.131 491.151 426.399 491.257C426.668 491.362 426.956 491.416 427.246 491.414Z" fill="#263238"/>
<path d="M422.792 515.501H462.835C463.421 515.497 463.982 515.272 464.396 514.875C464.809 514.477 465.041 513.939 465.041 513.379C465.038 512.82 464.804 512.286 464.391 511.891C463.978 511.496 463.419 511.273 462.835 511.269H422.792C422.208 511.273 421.649 511.496 421.236 511.891C420.823 512.286 420.589 512.82 420.586 513.379C420.586 513.939 420.818 514.477 421.231 514.875C421.644 515.272 422.206 515.497 422.792 515.501Z" fill="#263238"/>
<path d="M414.566 541.944H424.576L438.196 470.022H428.186L414.566 541.944Z" fill="#263238"/>
<path opacity="0.2" d="M414.566 541.944H424.576L438.196 470.022H428.186L414.566 541.944Z" fill="white"/>
<path opacity="0.2" d="M414.566 541.944H421.852L435.472 470.022H428.186L414.566 541.944Z" fill="white"/>
<path d="M507.658 541.944H497.648L484.028 470.022H494.038L507.658 541.944Z" fill="#263238"/>
<path opacity="0.4" d="M507.658 541.944H497.648L484.028 470.022H494.038L507.658 541.944Z" fill="white"/>
<path opacity="0.2" d="M504.934 541.944H497.648L484.028 470.022H491.314L504.934 541.944Z" fill="white"/>
<path d="M490.075 491.414H450.032C449.447 491.414 448.886 491.192 448.472 490.796C448.058 490.4 447.826 489.864 447.826 489.305C447.826 488.745 448.058 488.209 448.472 487.813C448.886 487.418 449.447 487.195 450.032 487.195H490.075C490.66 487.195 491.221 487.418 491.635 487.813C492.049 488.209 492.281 488.745 492.281 489.305C492.281 489.864 492.049 490.4 491.635 490.796C491.221 491.192 490.66 491.414 490.075 491.414Z" fill="#263238"/>
<path d="M494.515 515.501H454.486C454.195 515.501 453.907 515.446 453.638 515.339C453.37 515.232 453.126 515.076 452.921 514.878C452.716 514.681 452.553 514.447 452.443 514.19C452.333 513.932 452.278 513.657 452.279 513.379C452.279 512.819 452.512 512.283 452.926 511.887C453.339 511.492 453.901 511.269 454.486 511.269H494.515C495.1 511.269 495.661 511.492 496.075 511.887C496.489 512.283 496.721 512.819 496.721 513.379C496.723 513.657 496.667 513.932 496.557 514.19C496.447 514.447 496.285 514.681 496.08 514.878C495.875 515.076 495.631 515.232 495.362 515.339C495.094 515.446 494.806 515.501 494.515 515.501Z" fill="#263238"/>
<path opacity="0.2" d="M490.075 491.414H450.032C449.447 491.414 448.886 491.192 448.472 490.796C448.058 490.4 447.826 489.864 447.826 489.305C447.826 488.745 448.058 488.209 448.472 487.813C448.886 487.418 449.447 487.195 450.032 487.195H490.075C490.66 487.195 491.221 487.418 491.635 487.813C492.049 488.209 492.281 488.745 492.281 489.305C492.281 489.864 492.049 490.4 491.635 490.796C491.221 491.192 490.66 491.414 490.075 491.414Z" fill="white"/>
<path opacity="0.2" d="M494.515 515.501H454.486C454.195 515.501 453.907 515.446 453.638 515.339C453.37 515.232 453.126 515.076 452.921 514.878C452.716 514.681 452.553 514.447 452.443 514.19C452.333 513.932 452.278 513.657 452.279 513.379C452.279 512.819 452.512 512.283 452.926 511.887C453.339 511.492 453.901 511.269 454.486 511.269H494.515C495.1 511.269 495.661 511.492 496.075 511.887C496.489 512.283 496.721 512.819 496.721 513.379C496.723 513.657 496.667 513.932 496.557 514.19C496.447 514.447 496.285 514.681 496.08 514.878C495.875 515.076 495.631 515.232 495.362 515.339C495.094 515.446 494.806 515.501 494.515 515.501Z" fill="white"/>
<path d="M466.798 541.944H456.788L443.168 470.022H453.178L466.798 541.944Z" fill="#263238"/>
<path opacity="0.4" d="M466.798 541.944H456.788L443.168 470.022H453.178L466.798 541.944Z" fill="white"/>
<path opacity="0.2" d="M464.074 541.944H456.788L443.168 470.022H450.454L464.074 541.944Z" fill="white"/>
<path d="M497.934 466.585H425.625C424.73 466.585 424.004 467.278 424.004 468.134V471.897C424.004 472.753 424.73 473.446 425.625 473.446H497.934C498.829 473.446 499.554 472.753 499.554 471.897V468.134C499.554 467.278 498.829 466.585 497.934 466.585Z" fill="#263238"/>
<path opacity="0.2" d="M453.11 466.585H425.625C424.73 466.585 424.004 467.278 424.004 468.134V471.897C424.004 472.753 424.73 473.446 425.625 473.446H453.11C454.005 473.446 454.731 472.753 454.731 471.897V468.134C454.731 467.278 454.005 466.585 453.11 466.585Z" fill="white"/>
<path d="M264.705 484.149H173.246V541.007H264.705V484.149Z" fill="#407BFF"/>
<path opacity="0.6" d="M264.705 484.149H173.246V541.007H264.705V484.149Z" fill="white"/>
<path d="M261.368 494.812H176.597V538.169H261.368V494.812Z" fill="#407BFF"/>
<path d="M246.209 501.283H183.502V503.145H246.209V501.283Z" fill="white"/>
<path d="M213.589 506.999H183.502V508.861H213.589V506.999Z" fill="white"/>
<path d="M221.393 512.715H183.502V514.576H221.393V512.715Z" fill="white"/>
<path d="M196.85 518.417H183.502V520.279H196.85V518.417Z" fill="white"/>
<path d="M192.151 524.133H183.502V525.995H192.151V524.133Z" fill="white"/>
<path d="M377.723 541.944H303.276L315.875 447.328H365.125L377.723 541.944Z" fill="#407BFF"/>
<path opacity="0.6" d="M377.723 541.944H303.276L311.898 477.209L315.889 447.328H365.111L370.995 491.414L377.723 541.944Z" fill="white"/>
<path opacity="0.1" d="M370.995 491.414L311.898 477.209L315.889 447.328H365.111L370.995 491.414Z" fill="black"/>
<path d="M516.021 214.023H164.979C163.799 214.023 162.631 214.245 161.541 214.677C160.451 215.109 159.461 215.742 158.627 216.54C157.794 217.339 157.133 218.286 156.683 219.328C156.232 220.371 156.002 221.488 156.003 222.616V449.789C156.003 452.064 156.949 454.247 158.632 455.856C160.316 457.465 162.599 458.369 164.979 458.369H516.021C518.401 458.369 520.684 457.465 522.368 455.856C524.051 454.247 524.996 452.064 524.996 449.789V222.642C525.002 221.512 524.774 220.392 524.325 219.347C523.876 218.301 523.216 217.351 522.382 216.55C521.548 215.749 520.557 215.113 519.465 214.68C518.374 214.246 517.203 214.023 516.021 214.023Z" fill="#407BFF"/>
<path opacity="0.7" d="M516.021 214.023H164.979C163.799 214.023 162.631 214.245 161.541 214.677C160.451 215.109 159.461 215.742 158.627 216.54C157.794 217.339 157.133 218.286 156.683 219.328C156.232 220.371 156.002 221.488 156.003 222.616V449.789C156.003 452.064 156.949 454.247 158.632 455.856C160.316 457.465 162.599 458.369 164.979 458.369H516.021C518.401 458.369 520.684 457.465 522.368 455.856C524.051 454.247 524.996 452.064 524.996 449.789V222.642C525.002 221.512 524.774 220.392 524.325 219.347C523.876 218.301 523.216 217.351 522.382 216.55C521.548 215.749 520.557 215.113 519.465 214.68C518.374 214.246 517.203 214.023 516.021 214.023Z" fill="white"/>
<path d="M513.188 222.434H167.826V441.495H513.188V222.434Z" fill="#407BFF"/>
<path d="M403.016 534.836H277.971C277.188 534.836 276.554 535.442 276.554 536.19V540.473C276.554 541.221 277.188 541.827 277.971 541.827H403.016C403.798 541.827 404.432 541.221 404.432 540.473V536.19C404.432 535.442 403.798 534.836 403.016 534.836Z" fill="#407BFF"/>
<path opacity="0.7" d="M403.016 534.836H277.971C277.188 534.836 276.554 535.442 276.554 536.19V540.473C276.554 541.221 277.188 541.827 277.971 541.827H403.016C403.798 541.827 404.432 541.221 404.432 540.473V536.19C404.432 535.442 403.798 534.836 403.016 534.836Z" fill="white"/>
<path opacity="0.2" d="M513.188 222.642H167.826V255.296H513.188V222.642Z" fill="black"/>
<path opacity="0.4" d="M315.82 255.687H167.826V441.495H315.82V255.687Z" fill="white"/>
<path d="M460.029 303.08V306.335H456.624" stroke="white" stroke-miterlimit="10"/>
<path d="M449.433 306.335H337.885" stroke="white" stroke-miterlimit="10" stroke-dasharray="5.28 5.28"/>
<path d="M334.289 306.335H330.884V303.08" stroke="white" stroke-miterlimit="10"/>
<path d="M330.884 297.181V241.156" stroke="white" stroke-miterlimit="10" stroke-dasharray="4.53 4.53"/>
<path d="M330.884 238.214V234.959H334.289" stroke="white" stroke-miterlimit="10"/>
<path d="M341.481 234.959H453.028" stroke="white" stroke-miterlimit="10" stroke-dasharray="5.28 5.28"/>
<path d="M456.624 234.959H460.029V238.214" stroke="white" stroke-miterlimit="10"/>
<path d="M460.029 244.112V300.137" stroke="white" stroke-miterlimit="10" stroke-dasharray="4.53 4.53"/>
<path d="M462.195 232.889H457.877V237.016H462.195V232.889Z" fill="#407BFF" stroke="white" stroke-miterlimit="10"/>
<path d="M462.195 304.277H457.877V308.405H462.195V304.277Z" fill="#407BFF" stroke="white" stroke-miterlimit="10"/>
<path d="M333.036 232.889H328.719V237.016H333.036V232.889Z" fill="#407BFF" stroke="white" stroke-miterlimit="10"/>
<path d="M333.036 304.277H328.719V308.405H333.036V304.277Z" fill="#407BFF" stroke="white" stroke-miterlimit="10"/>
<path d="M397.622 232.889H393.305V237.016H397.622V232.889Z" fill="#407BFF" stroke="white" stroke-miterlimit="10"/>
<path d="M397.622 304.277H393.305V308.405H397.622V304.277Z" fill="#407BFF" stroke="white" stroke-miterlimit="10"/>
<path d="M462.195 268.577H457.877V272.704H462.195V268.577Z" fill="#407BFF" stroke="white" stroke-miterlimit="10"/>
<path d="M333.036 268.577H328.719V272.704H333.036V268.577Z" fill="#407BFF" stroke="white" stroke-miterlimit="10"/>
<path opacity="0.7" d="M448.302 258.929H416.69C415.268 258.929 414.116 260.03 414.116 261.389V269.475C414.116 270.834 415.268 271.936 416.69 271.936H448.302C449.724 271.936 450.876 270.834 450.876 269.475V261.389C450.876 260.03 449.724 258.929 448.302 258.929Z" fill="white"/>
<path opacity="0.7" d="M393.822 258.929H362.21C360.789 258.929 359.636 260.03 359.636 261.389V269.475C359.636 270.834 360.789 271.936 362.21 271.936H393.822C395.244 271.936 396.396 270.834 396.396 269.475V261.389C396.396 260.03 395.244 258.929 393.822 258.929Z" fill="white"/>
<path opacity="0.7" d="M323.693 417.239H292.081C290.659 417.239 289.507 418.341 289.507 419.7V427.785C289.507 429.144 290.659 430.246 292.081 430.246H323.693C325.114 430.246 326.267 429.144 326.267 427.785V419.7C326.267 418.341 325.114 417.239 323.693 417.239Z" fill="white"/>
<path d="M490.388 234.256H501.883" stroke="white" stroke-width="1.5" stroke-linecap="round" stroke-linejoin="round"/>
<path d="M490.388 239.464H501.883" stroke="white" stroke-width="1.5" stroke-linecap="round" stroke-linejoin="round"/>
<path d="M490.388 244.672H501.883" stroke="white" stroke-width="1.5" stroke-linecap="round" stroke-linejoin="round"/>
<path opacity="0.5" d="M307.076 284.487H191.238V395.222H307.076V284.487Z" fill="white"/>
<path d="M239.726 293.536V389.064" stroke="#407BFF" stroke-miterlimit="10"/>
<path d="M289.684 389.064C276.43 389.064 263.72 384.031 254.348 375.072C244.977 366.113 239.712 353.963 239.712 341.293C239.712 328.627 244.975 316.48 254.344 307.524C263.713 298.567 276.42 293.536 289.67 293.536" stroke="#407BFF" stroke-miterlimit="10"/>
<path d="M291.849 291.479H287.532V295.606H291.849V291.479Z" fill="white" stroke="#407BFF" stroke-miterlimit="10"/>
<path d="M291.849 386.993H287.532V391.121H291.849V386.993Z" fill="white" stroke="#407BFF" stroke-miterlimit="10"/>
<path d="M241.891 339.236H237.574V343.363H241.891V339.236Z" fill="white" stroke="#407BFF" stroke-miterlimit="10"/>
<path d="M240.842 293.536C240.842 293.747 240.777 293.953 240.654 294.129C240.532 294.305 240.357 294.441 240.153 294.522C239.949 294.603 239.724 294.624 239.508 294.583C239.291 294.542 239.092 294.44 238.936 294.291C238.78 294.142 238.673 293.951 238.63 293.744C238.587 293.537 238.609 293.322 238.694 293.127C238.778 292.932 238.921 292.765 239.105 292.648C239.289 292.531 239.505 292.468 239.726 292.468C240.021 292.472 240.303 292.585 240.511 292.785C240.72 292.984 240.839 293.254 240.842 293.536Z" fill="white" stroke="#407BFF" stroke-miterlimit="10"/>
<path d="M240.842 389.064C240.842 389.274 240.777 389.48 240.655 389.655C240.533 389.831 240.359 389.968 240.156 390.049C239.953 390.13 239.729 390.152 239.513 390.112C239.296 390.071 239.097 389.971 238.941 389.823C238.784 389.675 238.677 389.486 238.632 389.28C238.587 389.074 238.607 388.859 238.69 388.664C238.772 388.469 238.913 388.301 239.095 388.182C239.277 388.063 239.492 387.999 239.712 387.996C239.86 387.994 240.006 388.021 240.144 388.074C240.281 388.126 240.405 388.205 240.511 388.304C240.616 388.403 240.699 388.522 240.756 388.652C240.813 388.782 240.842 388.922 240.842 389.064Z" fill="white" stroke="#407BFF" stroke-miterlimit="10"/>
<path opacity="0.7" d="M431.659 418.814H396.587C393.9 418.814 391.322 417.794 389.422 415.977C387.521 414.16 386.454 411.697 386.454 409.127C386.454 406.558 387.521 404.094 389.422 402.278C391.322 400.461 393.9 399.441 396.587 399.441H431.659C434.346 399.441 436.924 400.461 438.824 402.278C440.724 404.094 441.792 406.558 441.792 409.127C441.792 411.697 440.724 414.16 438.824 415.977C436.924 417.794 434.346 418.814 431.659 418.814Z" fill="white"/>
<path opacity="0.7" d="M462.467 336.202H354.12C353.531 336.202 352.966 335.979 352.55 335.581C352.134 335.183 351.9 334.643 351.9 334.08C351.911 333.525 352.15 332.997 352.565 332.609C352.981 332.222 353.539 332.006 354.12 332.01H462.453C462.744 332.008 463.033 332.062 463.302 332.167C463.571 332.272 463.816 332.427 464.022 332.623C464.229 332.819 464.393 333.052 464.504 333.309C464.616 333.566 464.674 333.841 464.674 334.119C464.663 334.673 464.426 335.201 464.014 335.59C463.602 335.979 463.046 336.199 462.467 336.202Z" fill="white"/>
<path opacity="0.7" d="M462.467 351.657H354.12C353.829 351.659 353.541 351.606 353.271 351.5C353.002 351.395 352.757 351.24 352.551 351.044C352.345 350.848 352.181 350.615 352.069 350.358C351.957 350.101 351.9 349.826 351.9 349.548C351.9 348.985 352.134 348.445 352.55 348.047C352.966 347.649 353.531 347.426 354.12 347.426H462.453C463.042 347.426 463.607 347.649 464.023 348.047C464.44 348.445 464.674 348.985 464.674 349.548C464.674 350.107 464.441 350.644 464.027 351.039C463.613 351.435 463.052 351.657 462.467 351.657Z" fill="white"/>
<path opacity="0.7" d="M462.467 367.164H394.98C394.394 367.164 393.831 366.942 393.415 366.547C392.999 366.152 392.763 365.615 392.76 365.055C392.76 364.492 392.994 363.952 393.41 363.554C393.826 363.156 394.391 362.932 394.98 362.932H462.453C463.042 362.932 463.607 363.156 464.023 363.554C464.44 363.952 464.674 364.492 464.674 365.055C464.67 365.613 464.436 366.148 464.023 366.542C463.61 366.937 463.051 367.161 462.467 367.164Z" fill="white"/>
<path opacity="0.4" d="M186.39 231.691H178.735V239.008H186.39V231.691Z" fill="black"/>
<path opacity="0.4" d="M199.301 231.691H195.57C194.486 231.691 193.608 232.53 193.608 233.566V237.133C193.608 238.169 194.486 239.008 195.57 239.008H199.301C200.385 239.008 201.263 238.169 201.263 237.133V233.566C201.263 232.53 200.385 231.691 199.301 231.691Z" fill="black"/>
<path opacity="0.4" d="M212.649 231.691H211.995C210.062 231.691 208.495 233.189 208.495 235.037V235.662C208.495 237.51 210.062 239.008 211.995 239.008H212.649C214.582 239.008 216.149 237.51 216.149 235.662V235.037C216.149 233.189 214.582 231.691 212.649 231.691Z" fill="black"/>
<path opacity="0.9" d="M202.189 412.083V409.232L200.663 409.101C200.446 408.176 200.058 407.294 199.519 406.497L200.5 405.365L198.389 403.347L197.204 404.284C196.37 403.769 195.448 403.399 194.48 403.19L194.344 401.732H191.361L191.211 403.19C190.243 403.4 189.321 403.77 188.487 404.284L187.302 403.347L185.191 405.365L186.172 406.497C185.622 407.289 185.234 408.172 185.028 409.101L183.489 409.232V412.083L185.028 412.226C185.235 413.155 185.623 414.039 186.172 414.83L185.191 415.976L187.302 417.981L188.487 417.044C189.315 417.568 190.239 417.939 191.211 418.137L191.361 419.609H194.344L194.48 418.137C195.452 417.94 196.376 417.569 197.204 417.044L198.389 417.981L200.5 415.976L199.519 414.83C200.063 414.036 200.451 413.153 200.663 412.226L202.189 412.083ZM192.805 414.518C191.996 414.518 191.206 414.289 190.535 413.859C189.863 413.43 189.339 412.82 189.03 412.106C188.72 411.393 188.639 410.607 188.797 409.85C188.955 409.092 189.344 408.396 189.915 407.85C190.487 407.303 191.215 406.931 192.007 406.781C192.8 406.63 193.622 406.707 194.368 407.003C195.115 407.299 195.753 407.799 196.202 408.442C196.651 409.084 196.891 409.839 196.891 410.612C196.891 411.648 196.46 412.641 195.694 413.374C194.928 414.106 193.888 414.518 192.805 414.518Z" fill="white"/>
<path opacity="0.6" d="M214.283 420.129V417.942L213.085 417.825C212.922 417.091 212.617 416.394 212.186 415.768L212.949 414.869L211.301 413.294L210.375 414.036C209.715 413.624 208.98 413.332 208.209 413.177L208.1 412.018H205.757L205.648 413.177C204.877 413.332 204.143 413.624 203.483 414.036L202.557 413.294L200.895 414.869L201.671 415.768C201.24 416.394 200.935 417.091 200.772 417.825L199.574 417.942V420.168L200.772 420.286C200.935 421.019 201.24 421.717 201.671 422.343L200.895 423.241L202.557 424.817L203.483 424.074C204.143 424.487 204.877 424.778 205.648 424.934L205.757 426.08H208.1L208.209 424.934C208.98 424.778 209.715 424.487 210.375 424.074L211.301 424.817L212.949 423.241L212.186 422.343C212.617 421.717 212.922 421.019 213.085 420.286L214.283 420.129ZM206.929 422.043C206.3 422.046 205.686 421.87 205.162 421.538C204.638 421.207 204.229 420.734 203.987 420.18C203.745 419.626 203.68 419.015 203.801 418.426C203.922 417.837 204.223 417.295 204.666 416.869C205.11 416.444 205.675 416.153 206.291 416.035C206.907 415.917 207.546 415.976 208.126 416.206C208.707 416.435 209.203 416.824 209.553 417.323C209.902 417.822 210.088 418.409 210.088 419.01C210.09 419.407 210.01 419.802 209.852 420.17C209.694 420.538 209.461 420.872 209.168 421.154C208.874 421.436 208.525 421.66 208.141 421.812C207.757 421.965 207.345 422.043 206.929 422.043Z" fill="white"/>
<path opacity="0.4" d="M202.189 426.47V424.595L201.181 424.504C201.046 423.887 200.792 423.3 200.432 422.772L201.086 422.03L199.724 420.728L198.934 421.34C198.381 420.996 197.767 420.753 197.122 420.624L197.027 419.661H195.038L194.943 420.624C194.298 420.753 193.684 420.996 193.131 421.34L192.342 420.728L190.98 422.03L191.633 422.772C191.273 423.3 191.019 423.887 190.884 424.504L189.863 424.595V426.47L190.884 426.561C191.017 427.183 191.271 427.775 191.633 428.306L190.98 429.048L192.342 430.35L193.131 429.725C193.68 430.079 194.295 430.326 194.943 430.454L195.038 431.418H197L197.095 430.454C197.743 430.326 198.358 430.079 198.906 429.725L199.696 430.35L201.058 429.048L200.405 428.306C200.767 427.775 201.021 427.183 201.154 426.561L202.189 426.47ZM196.019 428.072C195.497 428.059 194.99 427.899 194.562 427.612C194.135 427.326 193.805 426.925 193.614 426.46C193.424 425.995 193.381 425.487 193.491 424.999C193.601 424.511 193.859 424.064 194.233 423.716C194.607 423.367 195.08 423.132 195.593 423.039C196.107 422.946 196.637 423 197.118 423.194C197.6 423.388 198.011 423.713 198.3 424.129C198.589 424.545 198.743 425.033 198.743 425.533C198.743 425.872 198.672 426.207 198.534 426.52C198.397 426.832 198.195 427.115 197.941 427.351C197.687 427.588 197.386 427.774 197.056 427.897C196.726 428.021 196.373 428.08 196.019 428.072Z" fill="white"/>
<path d="M459.239 234.217L465.014 248.981L474.67 239.737L459.239 234.217Z" fill="#407BFF"/>
<path d="M468.54 241.044L466.383 243.106L471.169 247.682L473.326 245.62L468.54 241.044Z" fill="#407BFF"/>
<path opacity="0.4" d="M474.67 239.737L459.239 234.217L465.014 248.981L468.773 245.388L471.157 247.679L473.308 245.622L470.925 243.331L474.67 239.737Z" fill="white"/>
<path d="M222.632 286.987L237.165 292.195L229.551 284.917C229.27 285.072 228.943 285.134 228.62 285.094C228.298 285.054 227.998 284.914 227.767 284.695C227.485 284.426 227.327 284.061 227.327 283.68C227.327 283.299 227.485 282.934 227.767 282.664C228.049 282.395 228.431 282.244 228.83 282.244C229.228 282.244 229.61 282.395 229.892 282.664C230.121 282.885 230.267 283.172 230.309 283.48C230.351 283.788 230.286 284.101 230.123 284.37L237.737 291.648L232.289 277.756L227.468 278.771L227.291 277.118L226.378 276.245L221.039 281.349L221.951 282.222L223.695 282.391L222.632 286.987Z" fill="#263238"/>
<path opacity="0.2" d="M222.632 286.987L237.165 292.195L229.551 284.917C229.27 285.072 228.943 285.134 228.62 285.094C228.298 285.054 227.998 284.914 227.767 284.695C227.485 284.426 227.327 284.061 227.327 283.68C227.327 283.299 227.485 282.934 227.767 282.664C228.049 282.395 228.431 282.244 228.83 282.244C229.228 282.244 229.61 282.395 229.892 282.664C230.121 282.885 230.267 283.172 230.309 283.48C230.351 283.788 230.286 284.101 230.123 284.37L237.737 291.648L232.289 277.756L227.468 278.771L227.291 277.118L226.378 276.245L221.039 281.349L221.951 282.222L223.695 282.391L222.632 286.987Z" fill="white"/>
<g opacity="0.1">
<path d="M218.328 222.434L167.145 405.261V222.434H218.328Z" fill="white"/>
<path d="M276.091 222.434L214.76 441.495H172.511L233.828 222.434H276.091Z" fill="white"/>
<path d="M337.517 222.434L276.186 441.495H257.077L318.408 222.434H337.517Z" fill="white"/>
<path d="M394.081 222.434L332.75 441.495H325.913L387.244 222.434H394.081Z" fill="white"/>
</g>
<path d="M601.868 270.816C606.703 276.141 631.301 321.438 626.547 332.01C621.794 342.582 582.378 330.395 582.378 330.395L584.734 315.462C584.734 315.462 600.043 315.982 601.514 314.589C602.985 313.196 580.798 292.026 580.798 292.026L601.868 270.816Z" fill="#263238"/>
<g opacity="0.2">
<path d="M626.52 332.01C625.936 333.234 624.918 334.221 623.646 334.796L622.856 335.135H622.747C622.504 335.233 622.253 335.315 621.998 335.382C620.891 335.722 619.75 335.949 618.593 336.059L617.599 336.15C617.109 336.15 616.618 336.215 616.114 336.228H614.752C601.541 336.228 582.323 330.304 582.323 330.304L584.679 315.37C584.679 315.37 599.988 315.891 601.459 314.498C601.813 314.16 600.765 312.649 598.98 310.592C594.649 305.501 585.973 297.025 582.391 293.562L580.771 292L601.868 270.816C606.703 276.089 631.301 321.386 626.52 332.01Z" fill="white"/>
</g>
<path opacity="0.2" d="M623.673 334.757L622.883 335.096H622.774C622.531 335.194 622.28 335.276 622.025 335.343C620.918 335.683 619.777 335.91 618.62 336.02L617.626 336.111C617.136 336.111 616.645 336.176 616.142 336.189H614.78C601.568 336.189 582.35 330.265 582.35 330.265L584.707 315.331C584.707 315.331 601.95 316.725 603.42 315.331C603.693 314.785 601.786 312.936 598.967 310.579C594.636 305.488 585.96 297.012 582.378 293.549L592.347 283.367L599.934 282.586C599.934 282.586 616.727 308.574 623.673 334.757Z" fill="black"/>
<path d="M552.168 269.28C549.444 271.168 548.082 273.85 549.172 275.269L621.14 370.119C622.216 371.539 625.308 371.148 628.032 369.26C630.756 367.372 632.118 364.677 631.028 363.271L559.06 268.407C557.984 267.001 554.906 267.379 552.168 269.28Z" fill="#263238"/>
<path opacity="0.7" d="M559.06 268.407L631.028 363.258C632.104 364.664 630.756 367.346 628.032 369.247C625.308 371.148 622.216 371.513 621.154 370.106L549.186 275.243C548.911 274.748 548.789 274.189 548.835 273.631C548.881 273.073 549.092 272.539 549.444 272.092C549.812 271.465 550.271 270.891 550.806 270.386C551.224 269.974 551.68 269.599 552.168 269.267C554.906 267.392 557.984 267.001 559.06 268.407Z" fill="white"/>
<path opacity="0.3" d="M631.028 363.258C632.104 364.664 630.756 367.346 628.032 369.247C625.308 371.148 622.216 371.513 621.154 370.107C620.554 369.325 622.039 368.14 622.911 366.435L549.444 272.118C549.812 271.491 550.271 270.917 550.806 270.412L622.788 365.276C623.211 364.865 623.666 364.487 624.15 364.143C626.874 362.242 629.952 361.852 631.028 363.258Z" fill="black"/>
<path d="M543.261 266.65C540.959 268.993 540.169 271.858 541.504 273.068L630.987 353.154C632.349 354.352 635.278 353.415 637.58 351.058C639.881 348.702 640.671 345.85 639.337 344.626L549.853 264.54C548.518 263.356 545.563 264.306 543.261 266.65Z" fill="#407BFF"/>
<path opacity="0.7" d="M549.853 264.553L639.336 344.639C640.698 345.824 639.881 348.702 637.579 351.058C635.278 353.415 632.322 354.339 630.987 353.154L541.504 273.068C541.139 272.629 540.911 272.101 540.846 271.544C540.781 270.986 540.881 270.423 541.136 269.918C541.381 269.235 541.72 268.587 542.144 267.991C542.481 267.53 542.854 267.095 543.261 266.689C545.563 264.306 548.518 263.355 549.853 264.553Z" fill="white"/>
<path opacity="0.3" d="M639.336 344.639C640.698 345.824 639.881 348.702 637.579 351.058C635.278 353.415 632.322 354.339 630.987 353.154C630.252 352.49 631.478 351.071 631.995 349.248L541.136 269.944C541.381 269.261 541.72 268.613 542.144 268.017L631.641 348.116C631.97 347.653 632.339 347.217 632.744 346.814C635.046 344.379 638.002 343.442 639.336 344.639Z" fill="black"/>
<path d="M564.767 522.232L557.957 522.336C551.024 491.206 546.121 452.679 543.07 423.619C542.594 419.062 542.158 414.752 541.708 410.729C541.531 408.815 541.354 406.979 541.191 405.208C540.374 396.472 539.829 389.584 539.475 385.262C539.229 382.137 539.107 380.418 539.107 380.418H563.868L563.637 386.421L562.819 406.224L562.738 408.489L562.22 421.575L561.362 443.852C569.82 475.23 564.767 522.232 564.767 522.232Z" fill="#EBB376"/>
<path d="M620.064 520.566L613.35 521.777C599.907 489.656 587.281 448.526 579.068 419.791C577.801 415.338 576.63 411.172 575.581 407.396C575.581 407.2 575.486 407.018 575.431 406.836C573.361 399.336 571.768 393.36 570.773 389.571L569.589 384.975L593.832 380.965L595.194 390.73L597.223 405.052L597.618 407.865L598.98 417.643L602.671 443.865C616.673 473.42 620.064 520.566 620.064 520.566Z" fill="#EBB376"/>
<path opacity="0.2" d="M597.292 405.078L575.581 407.396C575.581 407.2 575.486 407.018 575.431 406.836C573.361 399.336 571.768 393.36 570.773 389.571L595.289 390.73L597.292 405.078Z" fill="black"/>
<path opacity="0.2" d="M563.582 386.421L562.819 406.224L562.738 408.489L541.763 410.716C541.586 408.802 541.409 406.966 541.245 405.195C540.428 396.459 539.883 389.571 539.529 385.249L563.582 386.421Z" fill="black"/>
<path d="M544.623 543.871C545.892 542.886 547.336 542.128 548.886 541.632C548.886 541.632 553.53 537.231 555.778 523.977L561.852 522.454C562.885 522.218 563.968 522.29 564.956 522.66C565.945 523.03 566.791 523.681 567.382 524.524C567.55 524.759 567.678 525.019 567.763 525.292C568.077 526.714 568.296 528.153 568.417 529.602C568.757 534.447 568.789 539.308 568.512 544.158H567.409L566.973 535.044C566.81 531.932 564.318 535.578 563.609 538.95C562.901 542.322 561.389 545.837 554.28 546.007C545.971 546.124 542.526 545.811 544.623 543.871Z" fill="#263238"/>
<path d="M567.6 524.706C567.995 521.607 568.117 516.217 568.117 516.217L554.606 517.649C554.606 517.649 556.241 523.782 554.892 528.391C561.702 526.607 567.6 524.706 567.6 524.706Z" fill="#263238"/>
<path d="M599.593 543.871C600.863 542.891 602.307 542.137 603.856 541.645C603.856 541.645 608.501 537.244 610.734 523.99L616.823 522.467C617.855 522.231 618.938 522.303 619.927 522.673C620.915 523.043 621.762 523.694 622.352 524.537C622.52 524.773 622.649 525.032 622.734 525.305C623.048 526.727 623.266 528.166 623.387 529.615C623.725 534.46 623.752 539.322 623.469 544.171H622.434L621.998 535.057C621.835 531.945 619.342 535.591 618.634 538.963C617.926 542.335 616.414 545.85 609.291 546.02C600.942 546.124 597.496 545.811 599.593 543.871Z" fill="#263238"/>
<path d="M622.557 524.706C622.965 521.607 623.088 516.217 623.088 516.217L609.577 517.649C609.577 517.649 611.211 523.782 609.863 528.391C616.673 526.607 622.557 524.706 622.557 524.706Z" fill="#263238"/>
<path d="M599.634 398.685L573.933 401.823L572.939 401.94L567.654 383.426L566.292 403.268L538.753 401.888C526.495 333.052 547.456 316.79 547.456 316.79L584.816 323.977C601.732 351.475 597.714 383.426 597.714 383.426L599.634 398.685Z" fill="#407BFF"/>
<path d="M564.249 231.027C564.249 233.735 562.996 235.922 561.525 235.922C560.054 235.922 558.72 233.735 558.72 231.027C558.72 228.319 559.973 226.131 561.525 226.131C563.078 226.131 564.249 228.319 564.249 231.027Z" stroke="#263238" stroke-width="0.5" stroke-linecap="round" stroke-linejoin="round"/>
<path d="M582.705 247.38C582.605 247.469 582.495 247.548 582.378 247.614C580.824 248.747 579.051 249.575 577.161 250.049C571.645 251.273 567.872 250.544 565.407 248.161C561.961 244.581 561.103 238.24 561.594 230.584C561.679 227.538 562.268 224.523 563.337 221.652C563.337 221.652 563.337 221.535 563.337 221.509C563.337 221.483 563.419 221.288 563.473 221.184C564.148 219.564 565.238 218.133 566.642 217.021C568.046 215.908 569.719 215.151 571.509 214.817C573.06 214.485 574.645 214.315 576.235 214.309C591.857 214.192 594.663 238.904 582.705 247.38Z" fill="#EBB376"/>
<path opacity="0.2" d="M582.378 247.653C580.811 248.72 579.038 249.477 577.161 249.88C571.645 251.104 567.872 250.205 565.407 247.784C568.708 248.564 572.186 248.29 575.309 247.002C576.462 246.596 577.697 246.443 578.921 246.556C580.145 246.668 581.327 247.044 582.378 247.653Z" fill="black"/>
<path d="M583.958 261.129C584.925 265.374 579.163 267.105 579.163 267.105C569.752 263.199 568.009 258.473 568.009 258.473C575.867 254.567 573.593 243.487 573.593 243.487L575.186 244.242L586.396 246.338C586.396 246.338 583.29 252.041 582.882 253.343C580.757 260.179 583.958 261.129 583.958 261.129Z" fill="#EBB376"/>
<path d="M563.323 221.587C563.323 221.587 562.465 232.003 572.857 236.547C572.857 236.547 577.311 247.419 583.862 247.562C592.811 247.771 600.683 235.623 597.591 223.241C593.546 207.174 568.09 205.872 563.323 221.587Z" fill="#263238"/>
<path d="M567.573 233.54C567.573 231.912 568.935 229.165 571.659 229.543C574.383 229.92 575.935 236.404 569.18 237.849C568.158 238.058 567.573 236.964 567.573 233.54Z" fill="#EBB376"/>
<path d="M582.378 210.468C582.378 210.468 571.945 207.942 566.17 211.966C559.428 216.653 556.867 221.496 564.808 229.022C564.808 229.022 582.337 223.592 588.166 224.738C591.573 225.395 594.917 226.323 598.163 227.511C599.43 216.444 588.207 208.203 582.378 210.468Z" fill="#263238"/>
<path d="M567.573 231.027C567.573 231.027 570.297 243.083 566.02 253.369C566.02 253.369 590.808 261.585 599.43 257.119C608.051 252.653 600.152 237.667 599.784 229.022C599.416 220.376 595.494 207.604 582.378 210.468C569.262 213.333 567.573 231.027 567.573 231.027Z" fill="#263238"/>
<path d="M558.652 230.259H569.125" stroke="#263238" stroke-width="0.5" stroke-linecap="round" stroke-linejoin="round"/>
<path opacity="0.2" d="M573.933 401.823L572.939 401.94L567.654 383.426C567.654 383.426 578.986 364.925 575.445 355.29C575.949 355.967 588.153 373.27 573.933 401.823Z" fill="black"/>
<path d="M552.713 260.192C552.713 260.192 565.175 255.947 583.957 261.129C602.739 266.311 603.448 273.954 603.448 273.954C603.448 273.954 591.544 299.746 589.664 328.95L540.714 327.206C540.714 327.206 534.871 285.984 552.713 260.192Z" fill="#263238"/>
<path opacity="0.2" d="M603.448 273.954C603.448 273.954 591.544 299.746 589.664 328.95L540.714 327.206C540.129 322.452 539.829 317.67 539.815 312.884C539.719 305.878 540.174 298.875 541.177 291.934C542.812 281.128 546.176 269.592 552.713 260.14C552.713 260.14 565.176 255.895 583.958 261.077C602.74 266.259 603.448 273.954 603.448 273.954Z" fill="white"/>
<path opacity="0.2" d="M552.032 293.744C552.032 293.744 550.003 305.618 539.774 312.936C539.678 305.93 540.133 298.927 541.136 291.986L552.032 293.744Z" fill="black"/>
<path d="M497.947 259.371L491.777 250.622C491.777 250.622 490.838 246.82 489.639 245.961C488.44 245.101 476.591 240.271 475.161 240.297C473.731 240.323 473.799 249.125 475.161 250.622C476.523 252.119 484.068 255.322 486.057 255.648C488.045 255.973 487.065 255.648 487.065 255.648L492.513 266.064L497.947 259.371Z" fill="#EBB376"/>
<path d="M552.713 260.192C539.496 265.483 526.743 271.779 514.577 279.019L494.651 252.979C494.651 252.979 489.285 254.567 487.296 263.499C487.296 263.499 497.525 300.749 510.818 304.447C524.111 308.144 552.059 293.679 552.059 293.679C552.059 293.679 560.15 274.331 552.713 260.192Z" fill="#263238"/>
<path opacity="0.2" d="M552.713 260.192C539.496 265.483 526.743 271.779 514.577 279.019L494.651 252.979C494.651 252.979 489.285 254.567 487.296 263.499C487.296 263.499 497.525 300.749 510.818 304.447C524.111 308.144 552.059 293.679 552.059 293.679C552.059 293.679 560.15 274.331 552.713 260.192Z" fill="white"/>
<path d="M565.312 258.551C565.312 258.551 569.657 288.289 583.426 289.487C597.196 290.684 603.366 268.655 601.037 266.051C598.708 263.447 580.961 258.356 565.312 258.551Z" fill="#263238"/>
<path opacity="0.3" d="M565.312 258.551C565.312 258.551 569.657 288.289 583.426 289.487C597.196 290.684 603.366 268.655 601.037 266.051C598.708 263.447 580.961 258.356 565.312 258.551Z" fill="white"/>
<path d="M75.4004 532.088H85.4928L86.3236 509.746H76.2312L75.4004 532.088Z" fill="#B97964"/>
<path d="M86.8821 530.969H74.6241C74.4222 530.965 74.2254 531.03 74.0685 531.151C73.9115 531.273 73.8044 531.443 73.766 531.633L71.7775 540.213C71.7355 540.396 71.7319 540.585 71.7667 540.769C71.8016 540.954 71.8743 541.13 71.9807 541.287C72.0871 541.444 72.225 541.58 72.3864 541.686C72.5479 541.792 72.7298 541.867 72.9216 541.905H73.2484C77.2119 541.84 80.0584 541.606 85.0706 541.606C88.1487 541.606 97.3286 541.918 101.633 541.918C105.936 541.918 106.413 537.921 104.683 537.557C96.9064 535.929 91.0634 533.651 88.5709 531.554C88.1058 531.162 87.5023 530.953 86.8821 530.969Z" fill="#263238"/>
<path d="M87.5766 532.31C87.5304 532.297 87.4889 532.272 87.4574 532.237C87.4259 532.203 87.4058 532.16 87.3996 532.114C87.391 532.071 87.3969 532.027 87.4165 531.987C87.4361 531.947 87.4683 531.914 87.5085 531.893C87.8763 531.672 91.1315 529.758 92.2483 530.305C92.3744 530.361 92.4805 530.451 92.5531 530.565C92.6258 530.678 92.6619 530.81 92.6569 530.943C92.6941 531.171 92.667 531.405 92.5785 531.62C92.4899 531.835 92.3431 532.024 92.153 532.166C91.5891 532.543 90.9044 532.719 90.2189 532.661C89.3275 532.635 88.4417 532.517 87.5766 532.31ZM88.2713 531.984C89.4489 532.366 90.7342 532.305 91.8669 531.815C91.9849 531.713 92.075 531.585 92.1296 531.442C92.1842 531.299 92.2015 531.145 92.1802 530.995C92.1802 530.812 92.0985 530.721 92.0304 530.721C91.9336 530.674 91.8257 530.651 91.7171 530.656C90.4909 530.886 89.3216 531.337 88.2713 531.984Z" fill="#407BFF"/>
<path d="M87.5085 532.349C87.4729 532.326 87.4442 532.295 87.4251 532.258C87.4059 532.222 87.3972 532.181 87.3996 532.14C87.3996 532.01 87.6583 529.237 88.7616 528.326C88.8968 528.209 89.0574 528.123 89.2317 528.074C89.4061 528.024 89.5897 528.012 89.7694 528.039C89.9505 528.041 90.1257 528.101 90.2666 528.209C90.4075 528.318 90.5059 528.469 90.5458 528.638C90.7501 529.654 88.7343 531.776 87.6856 532.323H87.5766L87.5085 532.349ZM89.1293 528.612C88.4225 529.48 88.0092 530.534 87.9444 531.633C88.9795 530.877 90.2598 529.276 90.1372 528.651C90.1372 528.651 90.1372 528.417 89.7831 528.417H89.6741C89.4734 528.414 89.279 528.484 89.1293 528.612Z" fill="#407BFF"/>
<path opacity="0.2" d="M76.2311 509.759H86.3235L85.8877 521.282H75.7953L76.2311 509.759Z" fill="black"/>
<path d="M127.333 532.804L137.753 533.859L139.7 512.402L129.295 511.347L127.333 532.804Z" fill="#B97964"/>
<path d="M138.842 530.656H126.666C126.465 530.658 126.271 530.724 126.115 530.845C125.96 530.965 125.851 531.133 125.808 531.32L123.819 539.913C123.771 540.094 123.76 540.282 123.787 540.466C123.815 540.651 123.881 540.828 123.981 540.988C124.081 541.148 124.214 541.287 124.371 541.398C124.528 541.508 124.706 541.588 124.895 541.632H125.222C129.186 541.567 132.032 541.333 137.058 541.333C140.123 541.333 149.316 541.632 153.606 541.632C157.897 541.632 158.387 537.635 156.657 537.27C148.88 535.656 143.037 533.364 140.545 531.268C140.077 530.869 139.47 530.65 138.842 530.656Z" fill="#263238"/>
<path d="M139.537 531.997C139.491 531.985 139.449 531.96 139.418 531.925C139.386 531.89 139.366 531.847 139.36 531.802C139.35 531.757 139.357 531.71 139.379 531.67C139.402 531.629 139.438 531.598 139.483 531.581C139.837 531.359 143.092 529.445 144.209 530.005C144.335 530.058 144.441 530.145 144.514 530.257C144.587 530.369 144.623 530.499 144.617 530.63C144.65 530.859 144.623 531.092 144.537 531.308C144.452 531.524 144.31 531.717 144.127 531.867C143.553 532.233 142.867 532.402 142.179 532.349C141.288 532.322 140.402 532.204 139.537 531.997ZM140.232 531.685C141.411 532.062 142.696 531.997 143.827 531.502C143.946 531.401 144.037 531.273 144.092 531.13C144.146 530.987 144.163 530.833 144.141 530.682C144.141 530.5 144.059 530.422 143.991 530.422C143.901 530.37 143.796 530.347 143.691 530.357C142.477 530.584 141.32 531.035 140.286 531.685H140.232Z" fill="#407BFF"/>
<path d="M139.482 532.049C139.445 532.027 139.415 531.997 139.393 531.96C139.372 531.924 139.36 531.883 139.36 531.841C139.36 531.698 139.619 528.937 140.79 528.026C140.929 527.915 141.089 527.831 141.262 527.779C141.435 527.728 141.617 527.71 141.798 527.727C141.98 527.726 142.156 527.785 142.297 527.894C142.439 528.003 142.537 528.156 142.574 528.326C142.778 529.354 140.763 531.476 139.714 532.01H139.605L139.482 532.049ZM141.09 528.3C140.383 529.163 139.97 530.213 139.905 531.307C140.94 530.565 142.22 528.951 142.097 528.326C142.097 528.326 142.097 528.091 141.743 528.091H141.648C141.442 528.096 141.245 528.17 141.09 528.3Z" fill="#407BFF"/>
<path opacity="0.2" d="M129.295 511.347L139.7 512.402L138.679 523.469L128.273 522.414L129.295 511.347Z" fill="black"/>
<path d="M80.3581 313.847H133.926C139.006 340.421 154.941 434.438 143.46 518.261L125.331 516.113C125.331 516.113 127.007 404.909 111.017 363.779C109.178 385.783 106.931 409.193 105.092 421.653C100.434 452.315 90.4641 519.303 90.4641 519.303H72.0635C72.0635 519.303 75.8362 455.166 77.5796 425.038C79.4864 392.293 80.3581 320.565 80.3581 313.847Z" fill="#263238"/>
<path d="M145.584 522.245L123.152 519.055L123.847 513.118L147.178 516.048L145.584 522.245Z" fill="#407BFF"/>
<path d="M92.7386 519.42H70.9739V513.209L93.5558 512.806L92.7386 519.42Z" fill="#407BFF"/>
<path opacity="0.2" d="M111.071 363.74C113.7 370.947 115.7 378.351 117.05 385.874C118.549 366.344 112.556 345.512 112.556 345.512L111.071 363.74Z" fill="black"/>
<path d="M78.8735 322.753L77.6477 328.937C77.6477 328.937 115.116 333.572 138.42 333.442L137.603 329.198L78.8735 322.753Z" fill="#407BFF"/>
<path d="M154.914 269.201C154.914 269.201 167.867 308.261 176.706 310.865C185.545 313.469 208.032 281.193 208.032 281.193C208.032 281.193 228.23 281.011 229.129 279.696C230.028 278.381 223.886 264.775 222.415 264.762C220.944 264.749 203.347 271.076 202.679 272.144C202.012 273.212 181.813 291.674 180.887 291.127C179.961 290.58 172.279 267.366 172.279 267.366L154.914 269.201Z" fill="#B97964"/>
<path d="M210.701 279.084C210.862 279.052 211.021 279.013 211.178 278.966L210.947 278.823C210.872 278.916 210.79 279.003 210.701 279.084Z" fill="#B97964"/>
<path d="M147.559 264.697L149.139 267.47L156.507 280.49L158.046 283.185L178.735 276.31C178.735 276.31 170.127 245.609 167.145 242.458L147.559 264.697Z" fill="#407BFF"/>
<path opacity="0.4" d="M147.559 264.697L149.139 267.47L156.507 280.49L158.046 283.185L178.735 276.31C178.735 276.31 170.127 245.609 167.145 242.458L147.559 264.697Z" fill="white"/>
<path opacity="0.2" d="M149.139 267.47L156.507 280.49C161.07 271.936 159.749 260.218 159.749 260.218L149.139 267.47Z" fill="black"/>
<path d="M167.145 242.471C163.247 238.169 158.474 234.669 153.117 232.184C147.76 229.7 141.93 228.283 135.982 228.019C115.716 227.108 109.341 229.035 101.932 235.363C91.1042 244.607 77.634 324.198 77.634 324.198C97.3956 329.457 117.924 331.59 138.406 330.513C138.406 330.513 138.652 308.379 145.966 293.523C154.203 276.974 161.278 259.919 167.145 242.471Z" fill="#407BFF"/>
<path opacity="0.4" d="M77.634 324.198C97.3956 329.458 117.924 331.596 138.406 330.526C138.406 330.526 138.406 327.792 138.801 323.612C138.965 321.633 139.21 319.316 139.551 316.816C139.891 314.316 140.381 311.464 140.913 308.626C141.239 307.103 141.621 305.566 142.029 304.043C142.979 300.426 144.274 296.901 145.897 293.51C146.796 291.687 147.668 289.877 148.513 288.107C149.97 285.008 151.359 282 152.599 279.123C155.323 273.068 157.638 267.535 159.572 262.692C160.934 259.215 162.16 256.103 163.154 253.434C164.257 250.453 165.129 248.005 165.769 246.182C166.6 243.773 167.008 242.458 167.008 242.458C166.332 241.649 165.604 240.879 164.829 240.154C157.228 232.992 147.178 228.692 136.527 228.045H135.846C120.401 227.355 113.032 228.306 107.121 231.6C105.215 232.69 103.431 233.964 101.796 235.402C100.258 236.995 99.0479 238.85 98.2275 240.87C95.7101 246.466 93.6429 252.238 92.044 258.135L91.1451 261.298C89.7831 266.129 88.5028 271.272 87.277 276.48C86.9229 277.964 86.5824 279.448 86.2419 280.92C85.7379 283.185 85.234 285.437 84.7573 287.664C83.5315 293.276 82.4283 298.718 81.4613 303.613C80.0993 310.644 78.996 316.529 78.3423 320.188C77.8928 322.766 77.634 324.198 77.634 324.198ZM137.153 228.761C138.52 228.794 139.884 228.894 141.239 229.061C146.687 229.764 155.064 233.943 154.859 235.922C154.655 237.901 151.468 242.953 143.323 241.729C140.485 241.229 137.792 240.154 135.424 238.578C130.929 235.74 127.66 231.899 127.333 230.649C126.925 229.152 132.209 228.644 137.167 228.787L137.153 228.761Z" fill="white"/>
<path d="M119.693 255.296C119.693 255.296 108.96 280.125 106.754 300.762L135.778 304.303C135.778 304.303 148.798 270.751 151.495 260.257C151.495 260.231 128.314 258.017 119.693 255.296Z" fill="#407BFF"/>
<path opacity="0.4" d="M145.829 261.207L149.861 261.585L146.905 263.772L145.829 261.207Z" fill="white"/>
<path d="M130.03 230.714C132.223 236.704 140.381 239.438 144.658 239.828C146.233 240.066 147.846 239.802 149.249 239.077C150.651 238.353 151.766 237.208 152.421 235.818C152.421 235.818 147.532 233.488 148.022 230.871C148.369 229.27 149.055 227.755 150.038 226.418C150.547 225.654 151.102 224.92 151.7 224.217L143.868 208.164C142.125 215.116 136.772 228.475 130.03 230.714Z" fill="#B97964"/>
<path opacity="0.2" d="M143.555 215.572C139.823 223.384 145.094 228.761 148.022 230.819C148.369 229.218 149.055 227.703 150.038 226.366L143.555 215.572Z" fill="black"/>
<path d="M169.814 194.727C169.814 194.727 172.32 207.955 165.102 213.255C157.883 218.554 157.148 193.842 157.148 193.842L169.814 194.727Z" fill="#B97964"/>
<path opacity="0.4" d="M169.814 194.727C169.814 194.727 172.32 207.955 165.102 213.255C157.883 218.554 157.148 193.842 157.148 193.842L169.814 194.727Z" fill="black"/>
<path d="M144.004 224.387C145.614 226.532 147.915 228.112 150.555 228.886C153.195 229.66 156.028 229.584 158.619 228.67C162.002 227.535 164.804 225.206 166.45 222.16C166.682 221.757 166.886 221.314 167.09 220.858C170.468 212.643 171.176 192.592 162.078 193.334C154.56 193.946 147.205 191.732 143.364 197.943C142.267 199.71 141.623 201.7 141.485 203.75C140.667 213.333 139.714 218.892 144.004 224.387Z" fill="#B97964"/>
<path d="M156.099 208.489C155.935 209.244 156.317 209.934 156.848 210.013C157.379 210.091 157.897 209.505 158.019 208.711C158.142 207.916 157.788 207.265 157.27 207.2C156.753 207.135 156.221 207.708 156.099 208.489Z" fill="#263238"/>
<path d="M165.211 209.726C165.047 210.481 165.442 211.171 165.96 211.25C166.477 211.328 167.008 210.742 167.117 209.948C167.226 209.153 166.899 208.502 166.368 208.424C165.837 208.346 165.32 208.997 165.211 209.726Z" fill="#263238"/>
<path d="M162.255 209.713C162.869 212.197 163.836 214.589 165.129 216.822C164.519 217.125 163.847 217.297 163.16 217.327C162.473 217.356 161.788 217.241 161.152 216.991L162.255 209.713Z" fill="#A24E3F"/>
<path d="M153.702 205.286C153.785 205.31 153.873 205.312 153.957 205.291C154.041 205.27 154.118 205.228 154.178 205.169C154.595 204.758 155.107 204.446 155.671 204.256C156.236 204.066 156.84 204.004 157.434 204.075C157.558 204.099 157.687 204.075 157.794 204.01C157.9 203.944 157.976 203.842 158.006 203.724C158.02 203.666 158.021 203.605 158.01 203.547C157.999 203.488 157.975 203.432 157.941 203.382C157.907 203.332 157.862 203.289 157.81 203.256C157.758 203.223 157.699 203.201 157.638 203.19C156.898 203.086 156.143 203.15 155.433 203.376C154.723 203.602 154.079 203.985 153.552 204.492C153.464 204.579 153.414 204.696 153.414 204.818C153.414 204.939 153.464 205.056 153.552 205.143C153.595 205.197 153.646 205.245 153.702 205.286Z" fill="#263238"/>
<path d="M169.569 207.252C169.657 207.284 169.754 207.284 169.841 207.252C169.902 207.238 169.959 207.211 170.008 207.174C170.057 207.137 170.098 207.091 170.127 207.039C170.157 206.986 170.174 206.928 170.179 206.868C170.184 206.809 170.176 206.749 170.155 206.693C169.939 205.998 169.551 205.364 169.025 204.843C168.499 204.321 167.849 203.929 167.131 203.698C167.071 203.68 167.008 203.674 166.946 203.68C166.883 203.687 166.823 203.705 166.768 203.734C166.713 203.763 166.665 203.803 166.627 203.85C166.589 203.898 166.561 203.952 166.545 204.01C166.512 204.126 166.527 204.25 166.588 204.355C166.65 204.459 166.752 204.537 166.872 204.57C167.436 204.768 167.943 205.089 168.355 205.507C168.766 205.925 169.07 206.429 169.242 206.979C169.269 207.047 169.313 207.107 169.37 207.155C169.427 207.202 169.495 207.236 169.569 207.252Z" fill="#263238"/>
<path d="M154.832 217.33C154.832 217.33 156.507 220.767 159.926 220.637" stroke="#263238" stroke-width="0.5" stroke-linecap="round" stroke-linejoin="round"/>
<path d="M150.487 192.995L150.624 197.24C149.847 197.509 149.206 198.05 148.83 198.753C148.453 199.456 148.369 200.269 148.594 201.029C149.657 204.674 147.028 209.96 143.991 211.887C143.991 211.887 143.991 210.351 142.629 210.585C141.267 210.82 140.844 218.814 143.092 222.837C143.092 222.837 138.284 218.606 136.854 210.052C135.492 202.148 135.751 197.136 136.854 193.347L150.487 192.995Z" fill="#B97964"/>
<path opacity="0.4" d="M150.487 192.995L150.624 197.24C149.847 197.509 149.206 198.05 148.83 198.753C148.453 199.456 148.369 200.269 148.594 201.029C149.657 204.674 147.028 209.96 143.991 211.887C143.991 211.887 143.991 210.351 142.629 210.585C141.267 210.82 140.844 218.814 143.092 222.837C143.092 222.837 138.284 218.606 136.854 210.052C135.492 202.148 135.751 197.136 136.854 193.347L150.487 192.995Z" fill="black"/>
<path d="M136.091 198.086C140.952 198.541 145.857 198.255 150.624 197.24C164.339 194.636 170.182 199.453 170.182 199.453C171.131 198.637 171.879 197.63 172.371 196.504C172.863 195.378 173.088 194.162 173.028 192.943C172.633 189.168 167.145 188.53 167.145 188.53C167.145 188.53 165.497 184.272 161.86 182.983C158.224 181.694 154.573 184.923 154.573 184.923C154.573 184.923 150.038 180.731 144.753 181.928C142.974 182.277 141.375 183.2 140.222 184.541C139.069 185.883 138.433 187.562 138.42 189.298C138.42 189.298 132.223 189.897 132.359 192.943C132.495 195.99 136.091 198.086 136.091 198.086Z" fill="#263238"/>
<path d="M157.161 214.036C159.621 214.036 161.615 211.838 161.615 209.127C161.615 206.416 159.621 204.219 157.161 204.219C154.702 204.219 152.708 206.416 152.708 209.127C152.708 211.838 154.702 214.036 157.161 214.036Z" stroke="#263238" stroke-width="0.5" stroke-linecap="round" stroke-linejoin="round"/>
<path d="M172.811 209.856C172.688 210.671 172.323 211.436 171.759 212.058C171.195 212.68 170.455 213.135 169.629 213.367C168.802 213.599 167.924 213.599 167.097 213.367C166.27 213.136 165.531 212.682 164.966 212.06C164.402 211.438 164.036 210.674 163.913 209.859C163.79 209.044 163.915 208.212 164.272 207.463C164.629 206.713 165.204 206.078 165.928 205.632C166.652 205.186 167.495 204.949 168.357 204.948C169.625 205.041 170.805 205.609 171.638 206.528C172.472 207.447 172.893 208.643 172.811 209.856Z" stroke="#263238" stroke-width="0.5" stroke-linecap="round" stroke-linejoin="round"/>
<path d="M161.601 209.713C161.601 209.713 163.045 208.854 163.903 209.856" stroke="#263238" stroke-width="0.5" stroke-linecap="round" stroke-linejoin="round"/>
<path d="M152.707 209.127L144.903 208.125C143.88 207.999 142.847 208.266 142.029 208.867L141.689 209.127" stroke="#263238" stroke-width="0.5" stroke-linecap="round" stroke-linejoin="round"/>
<path d="M136.009 210.924C136.792 213.214 138.491 215.114 140.735 216.21C143.718 217.629 145.843 215.234 145.543 212.226C145.271 209.544 143.405 205.508 140.095 205.351C139.389 205.329 138.688 205.475 138.055 205.777C137.423 206.079 136.879 206.526 136.473 207.08C136.068 207.633 135.813 208.274 135.732 208.946C135.651 209.617 135.746 210.297 136.009 210.924Z" fill="#B97964"/>
<path opacity="0.2" d="M86.2418 280.959C99.0991 275.855 109.26 254.775 109.26 254.775L101.959 250.557L92.0439 258.174L91.145 261.337C89.783 266.168 88.5027 271.311 87.2769 276.519C86.9228 278.003 86.5823 279.487 86.2418 280.959Z" fill="black"/>
<path d="M157.052 283.198L179.226 275.412L179.866 277.209L157.679 284.76L157.052 283.198Z" fill="#407BFF"/>
<path d="M99.6013 336.777L35.3279 327.035L29.042 364.931L93.3153 374.674L99.6013 336.777Z" fill="#407BFF"/>
<path d="M58.0621 341.463L45.0005 347.933L55.3244 357.946" stroke="white" stroke-width="2" stroke-linecap="round" stroke-linejoin="round"/>
<path d="M70.538 360.25L83.5859 353.779L73.2756 343.767" stroke="white" stroke-width="2" stroke-linecap="round" stroke-linejoin="round"/>
<path d="M59.8735 358.636L68.7265 343.077" stroke="white" stroke-width="2" stroke-linecap="round" stroke-linejoin="round"/>
<path d="M94.264 238.761C94.264 238.761 70.0341 262.001 66.738 266.519C63.442 271.037 57.1223 321.125 57.1223 321.125C57.1223 321.125 55.7603 321.568 55.6786 322.649C55.5969 323.729 55.4607 337.791 55.6786 338.442C55.8965 339.093 67.0377 345.668 68.6857 344.106C70.3337 342.543 72.6219 326.62 72.6219 326.62L66.738 321.125C66.738 321.125 73.548 284.24 77.8656 278.263C82.1831 272.287 99.7801 259.502 99.7801 259.502L94.264 238.761Z" fill="#B97964"/>
<path d="M112.883 229.399C116.41 236.547 113.727 251.598 107.217 256.911C100.328 262.371 93.0463 267.362 85.4247 271.845L73.5481 256.963C73.5481 256.963 86.1875 245.167 93.8419 238.37C99.048 233.546 105.709 230.407 112.883 229.399Z" fill="#407BFF"/>
<path opacity="0.4" d="M112.883 229.399C116.41 236.547 113.727 251.598 107.217 256.911C100.328 262.371 93.0463 267.362 85.4247 271.845L73.5481 256.963C73.5481 256.963 86.1875 245.167 93.8419 238.37C99.048 233.546 105.709 230.407 112.883 229.399Z" fill="white"/>
<path d="M73.548 256.012L72.077 257.926L84.4848 273.433L86.2418 272.235L73.548 256.012Z" fill="#407BFF"/>
</svg>
